<svg width="84" height="50" viewBox="0 0 84 50" fill="none" xmlns="http://www.w3.org/2000/svg">
<path fill-rule="evenodd" clip-rule="evenodd" d="M22.3269 13.0747H26.094V36.3324H22.3269V13.0747ZM39.1972 28.9588C39.1972 32.5621 36.2491 32.8897 35.2663 32.8897C32.9733 32.8897 32.6458 30.7605 32.6458 29.614V20.6057H28.8787V29.4502C28.8787 31.5794 29.5338 33.5448 30.8441 34.6913C31.9906 35.8378 33.4647 36.3292 35.2663 36.3292C36.5766 36.3292 38.2145 36.0016 39.1972 35.0189V36.3292H42.9643V20.6057H39.1972V28.9588ZM46.5675 14.8737H50.3346V20.6063H53.119V24.2096H50.3346V36.3298H46.5675V24.2096H43.7831V20.6063H46.5675V14.8737ZM64.9118 31.5823C64.0929 32.2375 62.9464 32.7288 61.7999 32.7288C59.1793 32.7288 57.3777 30.7634 57.3777 28.1428C57.3777 25.5222 59.1793 23.7206 61.7999 23.7206C62.9464 23.7206 64.0929 24.0481 64.9118 24.8671L65.4032 25.3584L68.0238 22.9016L67.3686 22.4103C65.8945 21.1 63.9291 20.281 61.7999 20.281C57.2139 20.281 53.7744 23.7206 53.7744 28.3066C53.7744 32.8926 57.2139 36.3321 61.7999 36.3321C63.9291 36.3321 65.8945 35.5132 67.3686 34.2029L68.0238 33.7115L65.4032 31.0909L64.9118 31.5823ZM77.1954 20.2813C78.997 20.2813 80.1436 20.7727 81.2901 21.9192C82.4366 23.0657 82.9279 25.0311 82.9279 27.1604V36.1686H79.1608V26.9966C79.1608 26.9278 79.1614 26.8555 79.162 26.7803V26.7802C79.1716 25.6021 79.187 23.7208 77.0316 23.7208C76.0489 23.7208 73.5921 24.0484 73.5921 27.6517V36.3324H69.825V13.0747H73.5921V21.5916C74.5748 20.6089 75.8851 20.2813 77.1954 20.2813ZM61.6356 30.9264C63.0829 30.9264 64.2562 29.7531 64.2562 28.3058C64.2562 26.8585 63.0829 25.6852 61.6356 25.6852C60.1883 25.6852 59.015 26.8585 59.015 28.3058C59.015 29.7531 60.1883 30.9264 61.6356 30.9264ZM11.6811 32.7287C13.8103 32.7287 15.7757 31.9098 17.086 30.5995L17.5774 30.1082L20.0342 32.565L19.5428 33.0563C17.5774 35.1855 14.6292 36.332 11.6811 36.332C5.62097 36.332 1.03496 31.4185 1.03496 25.0308C1.03496 18.6431 5.62097 13.7295 11.8448 13.8933C14.793 13.8933 17.5774 15.0398 19.7066 17.169L20.1979 17.6604L17.7411 20.1172L17.2498 19.6258C15.7757 18.1517 13.8103 17.3328 11.8448 17.3328C7.5864 17.3328 4.63825 20.6085 4.63825 25.0308C4.63825 29.453 7.5864 32.7287 11.6811 32.7287Z" fill="white"/>
</svg>
