<svg width="80" height="49" viewBox="0 0 80 49" fill="none" xmlns="http://www.w3.org/2000/svg">
<path d="M19.6976 23.2574H10.4522V25.9892H17.0041C16.6765 29.8501 13.4734 31.4892 10.4522 31.4892C6.59394 31.4892 3.20882 28.4296 3.20882 24.168C3.20882 20.0157 6.41195 16.8104 10.4522 16.8104C13.5462 16.8104 15.4025 18.7773 15.4025 18.7773L17.3317 16.774C17.3317 16.774 14.8565 14.0422 10.3794 14.0422C4.66479 14.0787 0.224098 18.923 0.224098 24.1316C0.224098 29.2673 4.3736 34.2574 10.525 34.2574C15.9121 34.2574 19.8796 30.5421 19.8796 25.0786C19.8796 23.913 19.6976 23.2574 19.6976 23.2574ZM27.2686 21.2905C23.4831 21.2905 20.7532 24.2409 20.7532 27.7375C20.7532 31.2342 23.3739 34.2574 27.305 34.2574C30.8357 34.2574 33.7477 31.5256 33.7477 27.8104C33.7841 23.476 30.399 21.2905 27.2686 21.2905ZM27.305 23.8402C29.1614 23.8402 30.9449 25.3336 30.9449 27.7739C30.9449 30.1415 29.1978 31.7077 27.305 31.7077C25.2303 31.7077 23.5923 30.0686 23.5923 27.7739C23.5923 25.5157 25.2303 23.8402 27.305 23.8402ZM41.4279 21.2905C37.6424 21.2905 34.9124 24.2409 34.9124 27.7375C34.9124 31.2342 37.5332 34.2574 41.4643 34.2574C44.995 34.2574 47.9069 31.5256 47.9069 27.8104C47.9433 23.476 44.5582 21.2905 41.4279 21.2905ZM41.4643 23.8402C43.3206 23.8402 45.1042 25.3336 45.1042 27.7739C45.1042 30.1415 43.357 31.7077 41.4643 31.7077C39.3895 31.7077 37.7516 30.0686 37.7516 27.7739C37.788 25.5157 39.3895 23.8402 41.4643 23.8402ZM55.3323 21.2905C51.838 21.2905 49.1081 24.3501 49.1081 27.7739C49.1081 31.6713 52.2748 34.2574 55.2595 34.2574C57.1159 34.2574 58.0987 33.5289 58.8267 32.6911V33.966C58.8267 36.1878 57.4799 37.5355 55.4051 37.5355C53.4396 37.5355 52.4204 36.0785 52.0928 35.2408L49.6177 36.2971C50.4913 38.1547 52.2748 40.1216 55.4415 40.1216C58.8994 40.1216 61.5566 37.9361 61.5566 33.3468V21.6912H58.8267V22.7839C57.9895 21.8733 56.8611 21.2905 55.3323 21.2905ZM55.5871 23.8402C57.2979 23.8402 59.045 25.2971 59.045 27.7739C59.045 30.3236 57.2979 31.7077 55.5507 31.7077C53.6944 31.7077 51.9836 30.2143 51.9836 27.8104C51.9472 25.2971 53.7672 23.8402 55.5871 23.8402ZM73.6047 21.2541C70.3288 21.2541 67.5624 23.8766 67.5624 27.7375C67.5624 31.817 70.62 34.2574 73.9323 34.2574C76.6622 34.2574 78.373 32.764 79.3557 31.4163L77.099 29.9229C76.5166 30.8335 75.5338 31.7077 73.9323 31.7077C72.1123 31.7077 71.2751 30.7243 70.7656 29.7408L79.4649 26.1349L79.0282 25.0786C78.1546 23.0024 76.189 21.2541 73.6047 21.2541ZM73.7139 23.7673C74.9151 23.7673 75.7522 24.3865 76.1162 25.1514L70.3288 27.5918C70.074 25.6978 71.8575 23.7673 73.7139 23.7673ZM63.4493 33.8567H66.2885V14.7707H63.4493V33.8567Z" fill="white"/>
</svg>
