<svg width="40" height="40" viewBox="0 0 40 40" fill="none" xmlns="http://www.w3.org/2000/svg">
<path fill-rule="evenodd" clip-rule="evenodd" d="M10.9097 7.32128C11.2722 6.69151 11.7765 6.15599 12.3822 5.75798L16.7001 3.28372C17.8453 2.61823 18.7869 3.16423 18.7869 4.49523V18.4878C18.7869 19.8189 17.8453 20.3649 16.7001 19.6994L12.3822 17.1398C11.7765 16.7418 11.2722 16.2063 10.9097 15.5765C10.5473 14.9467 10.3369 14.2401 10.2954 13.5136V9.38412C10.3369 8.65761 10.5473 7.95105 10.9097 7.32128ZM9.91021 17.557C10.6128 17.557 11.3055 17.7207 11.9324 18.0347L16.1333 20.4171C17.2454 21.0535 17.2454 22.0897 16.1333 22.7261L4.43667 29.4165C3.3247 30.0529 2.41034 29.5307 2.41034 28.2579V23.4604C2.45061 22.7657 2.65496 22.09 3.00687 21.4878C3.35885 20.8855 3.84857 20.3735 4.43667 19.9929L7.88801 18.0347C8.51493 17.7207 9.20766 17.557 9.91021 17.557ZM27.6179 5.75798C28.2236 6.15599 28.7279 6.69151 29.0903 7.32128C29.4528 7.95105 29.6633 8.65761 29.7047 9.38412V13.5136C29.6633 14.2401 29.4528 14.9467 29.0903 15.5765C28.7279 16.2063 28.2236 16.7418 27.6179 17.1398L23.2915 19.6994C22.1463 20.3649 21.2131 19.8189 21.2131 18.4878V4.49523C21.2131 3.16423 22.1463 2.61823 23.2915 3.28372L27.6179 5.75798ZM29.7815 17.557C29.0493 17.557 28.3274 17.7207 27.6739 18.0347L23.2955 20.4171C22.1365 21.0535 22.1365 22.0897 23.2955 22.7261L35.4864 29.4165C36.6453 30.0529 37.5897 29.5307 37.5897 28.2579V23.4604C37.5494 22.7663 37.338 22.0908 36.9727 21.4885C36.6074 20.8862 36.0982 20.3739 35.4864 19.9929L31.8892 18.0347C31.2358 17.7207 30.5138 17.557 29.7815 17.557ZM9.87429 35.8827C10.5016 36.1963 11.1947 36.3597 11.8976 36.3597C12.6006 36.3597 13.2937 36.1963 13.9209 35.8827L17.3743 33.919C17.9618 33.5367 18.4505 33.0236 18.8012 32.4208C19.1519 31.818 19.3547 31.1423 19.3935 30.448V25.6569C19.3935 24.3858 18.4869 23.8643 17.3743 24.4999L5.67097 31.1813C4.55833 31.8168 4.55833 32.8516 5.67097 33.4872L9.87429 35.8827ZM20.618 32.4193C20.2528 31.8184 20.0411 31.1445 20.0001 30.4519V25.6559C20.0001 24.3857 20.9445 23.8646 22.1034 24.4997L34.2944 31.1766C35.4533 31.8117 35.4533 32.8459 34.2944 33.481L29.9159 35.883C29.2625 36.1965 28.5405 36.3597 27.8083 36.3597C27.076 36.3597 26.3541 36.1965 25.7006 35.883L22.1034 33.9125C21.492 33.5317 20.9833 33.0204 20.618 32.4193Z" fill="#36485C"/>
</svg>
