<svg width="32" height="32" viewBox="0 0 32 32" fill="none" xmlns="http://www.w3.org/2000/svg">
<g clip-path="url(#clip0_0_375)">
<path fill-rule="evenodd" clip-rule="evenodd" d="M27.523 27.1005C30.2952 24.2235 32 20.3108 32 16C32 7.16344 24.8366 0 16 0C7.16344 0 0 7.16344 0 16C0 20.3108 1.70481 24.2235 4.477 27.1005C5.93041 22.1089 10.5392 18.4613 16 18.4613C21.4608 18.4613 26.0696 22.1089 27.523 27.1005ZM16 16C18.9455 16 21.3333 13.6122 21.3333 10.6667C21.3333 7.72115 18.9455 5.33333 16 5.33333C13.0545 5.33333 10.6667 7.72115 10.6667 10.6667C10.6667 13.6122 13.0545 16 16 16Z" fill="#36485C"/>
<circle cx="16" cy="16" r="15.25" stroke="#36485C" stroke-width="1.5"/>
</g>
<defs>
<clipPath id="clip0_0_375">
<rect width="32" height="32" fill="white"/>
</clipPath>
</defs>
</svg>
